<svg id="visual" viewBox="0 0 900 600" width="900" height="600" xmlns="http://www.w3.org/2000/svg" xmlns:xlink="http://www.w3.org/1999/xlink" version="1.1"><rect x="0" y="0" width="900" height="600" fill="#2c333f"></rect><defs><linearGradient id="grad1_0" x1="33.3%" y1="0%" x2="100%" y2="100%"><stop offset="20%" stop-color="#758a7f" stop-opacity="1"></stop><stop offset="80%" stop-color="#758a7f" stop-opacity="1"></stop></linearGradient></defs><defs><linearGradient id="grad1_1" x1="33.3%" y1="0%" x2="100%" y2="100%"><stop offset="20%" stop-color="#758a7f" stop-opacity="1"></stop><stop offset="80%" stop-color="#475e63" stop-opacity="1"></stop></linearGradient></defs><defs><linearGradient id="grad1_2" x1="33.3%" y1="0%" x2="100%" y2="100%"><stop offset="20%" stop-color="#2c333f" stop-opacity="1"></stop><stop offset="80%" stop-color="#475e63" stop-opacity="1"></stop></linearGradient></defs><defs><linearGradient id="grad2_0" x1="0%" y1="0%" x2="66.7%" y2="100%"><stop offset="20%" stop-color="#758a7f" stop-opacity="1"></stop><stop offset="80%" stop-color="#758a7f" stop-opacity="1"></stop></linearGradient></defs><defs><linearGradient id="grad2_1" x1="0%" y1="0%" x2="66.7%" y2="100%"><stop offset="20%" stop-color="#475e63" stop-opacity="1"></stop><stop offset="80%" stop-color="#758a7f" stop-opacity="1"></stop></linearGradient></defs><defs><linearGradient id="grad2_2" x1="0%" y1="0%" x2="66.7%" y2="100%"><stop offset="20%" stop-color="#475e63" stop-opacity="1"></stop><stop offset="80%" stop-color="#2c333f" stop-opacity="1"></stop></linearGradient></defs><g transform="translate(900, 0)"><path d="M0 486.7C-58.1 453.9 -116.3 421 -160 386.2C-203.6 351.4 -232.8 314.7 -285 285C-337.1 255.3 -412.2 232.6 -449.7 186.3C-487.2 139.9 -487 70 -486.7 0L0 0Z" fill="#384852"></path><path d="M0 324.5C-38.8 302.6 -77.5 280.7 -106.6 257.5C-135.8 234.3 -155.2 209.8 -190 190C-224.7 170.2 -274.8 155.1 -299.8 124.2C-324.8 93.3 -324.6 46.6 -324.5 0L0 0Z" fill="#5b7472"></path><path d="M0 162.2C-19.4 151.3 -38.8 140.3 -53.3 128.7C-67.9 117.1 -77.6 104.9 -95 95C-112.4 85.1 -137.4 77.5 -149.9 62.1C-162.4 46.6 -162.3 23.3 -162.2 0L0 0Z" fill="#758a7f"></path></g><g transform="translate(0, 600)"><path d="M0 -486.7C47 -441.4 94.1 -396.1 157.3 -379.7C220.5 -363.3 299.8 -375.8 344.2 -344.2C388.5 -312.6 397.8 -236.9 415.7 -172.2C433.7 -107.5 460.2 -53.7 486.7 0L0 0Z" fill="#384852"></path><path d="M0 -324.5C31.4 -294.3 62.7 -264.1 104.9 -253.1C147 -242.2 199.9 -250.5 229.5 -229.5C259 -208.4 265.2 -157.9 277.2 -114.8C289.1 -71.7 306.8 -35.8 324.5 0L0 0Z" fill="#5b7472"></path><path d="M0 -162.2C15.7 -147.1 31.4 -132 52.4 -126.6C73.5 -121.1 99.9 -125.3 114.7 -114.7C129.5 -104.2 132.6 -79 138.6 -57.4C144.6 -35.8 153.4 -17.9 162.2 0L0 0Z" fill="#758a7f"></path></g></svg>