<svg id="visual" viewBox="0 0 960 300" width="960" height="300" xmlns="http://www.w3.org/2000/svg" xmlns:xlink="http://www.w3.org/1999/xlink" version="1.1"><rect x="0" y="0" width="960" height="300" fill="#2c333f"></rect><path d="M0 102L16 114.2C32 126.3 64 150.7 96 154.8C128 159 160 143 192 134.2C224 125.3 256 123.7 288 124.8C320 126 352 130 384 135.7C416 141.3 448 148.7 480 143.8C512 139 544 122 576 116.7C608 111.3 640 117.7 672 120.5C704 123.3 736 122.7 768 123.5C800 124.3 832 126.7 864 125C896 123.3 928 117.7 944 114.8L960 112L960 301L944 301C928 301 896 301 864 301C832 301 800 301 768 301C736 301 704 301 672 301C640 301 608 301 576 301C544 301 512 301 480 301C448 301 416 301 384 301C352 301 320 301 288 301C256 301 224 301 192 301C160 301 128 301 96 301C64 301 32 301 16 301L0 301Z" fill="#2c333f"></path><path d="M0 146L16 149.7C32 153.3 64 160.7 96 169.7C128 178.7 160 189.3 192 194.7C224 200 256 200 288 199.7C320 199.3 352 198.7 384 196.7C416 194.7 448 191.3 480 185.8C512 180.3 544 172.7 576 164.7C608 156.7 640 148.3 672 143.5C704 138.7 736 137.3 768 138.7C800 140 832 144 864 141.5C896 139 928 130 944 125.5L960 121L960 301L944 301C928 301 896 301 864 301C832 301 800 301 768 301C736 301 704 301 672 301C640 301 608 301 576 301C544 301 512 301 480 301C448 301 416 301 384 301C352 301 320 301 288 301C256 301 224 301 192 301C160 301 128 301 96 301C64 301 32 301 16 301L0 301Z" fill="#29303b"></path><path d="M0 220L16 214.7C32 209.3 64 198.7 96 199C128 199.3 160 210.7 192 207.2C224 203.7 256 185.3 288 182C320 178.7 352 190.3 384 189.3C416 188.3 448 174.7 480 167.2C512 159.7 544 158.3 576 159.3C608 160.3 640 163.7 672 173.2C704 182.7 736 198.3 768 197C800 195.7 832 177.3 864 172.8C896 168.3 928 177.7 944 182.3L960 187L960 301L944 301C928 301 896 301 864 301C832 301 800 301 768 301C736 301 704 301 672 301C640 301 608 301 576 301C544 301 512 301 480 301C448 301 416 301 384 301C352 301 320 301 288 301C256 301 224 301 192 301C160 301 128 301 96 301C64 301 32 301 16 301L0 301Z" fill="#272d36"></path><path d="M0 183L16 190.7C32 198.3 64 213.7 96 221.5C128 229.3 160 229.7 192 229.3C224 229 256 228 288 224.7C320 221.3 352 215.7 384 215.7C416 215.7 448 221.3 480 217C512 212.7 544 198.3 576 198.7C608 199 640 214 672 215C704 216 736 203 768 199.8C800 196.7 832 203.3 864 208C896 212.7 928 215.3 944 216.7L960 218L960 301L944 301C928 301 896 301 864 301C832 301 800 301 768 301C736 301 704 301 672 301C640 301 608 301 576 301C544 301 512 301 480 301C448 301 416 301 384 301C352 301 320 301 288 301C256 301 224 301 192 301C160 301 128 301 96 301C64 301 32 301 16 301L0 301Z" fill="#252b32"></path><path d="M0 224L16 226.2C32 228.3 64 232.7 96 232C128 231.3 160 225.7 192 223.7C224 221.7 256 223.3 288 224.8C320 226.3 352 227.7 384 234.2C416 240.7 448 252.3 480 255.5C512 258.7 544 253.3 576 252C608 250.7 640 253.3 672 249.5C704 245.7 736 235.3 768 229.7C800 224 832 223 864 226C896 229 928 236 944 239.5L960 243L960 301L944 301C928 301 896 301 864 301C832 301 800 301 768 301C736 301 704 301 672 301C640 301 608 301 576 301C544 301 512 301 480 301C448 301 416 301 384 301C352 301 320 301 288 301C256 301 224 301 192 301C160 301 128 301 96 301C64 301 32 301 16 301L0 301Z" fill="#23282d"></path><path d="M0 281L16 278C32 275 64 269 96 269.7C128 270.3 160 277.7 192 277.5C224 277.3 256 269.7 288 269.7C320 269.7 352 277.3 384 278.2C416 279 448 273 480 272.8C512 272.7 544 278.3 576 279.7C608 281 640 278 672 272.7C704 267.3 736 259.7 768 255.2C800 250.7 832 249.3 864 253.3C896 257.3 928 266.7 944 271.3L960 276L960 301L944 301C928 301 896 301 864 301C832 301 800 301 768 301C736 301 704 301 672 301C640 301 608 301 576 301C544 301 512 301 480 301C448 301 416 301 384 301C352 301 320 301 288 301C256 301 224 301 192 301C160 301 128 301 96 301C64 301 32 301 16 301L0 301Z" fill="#212529"></path></svg>