<svg id="visual" viewBox="0 0 960 300" width="960" height="300" xmlns="http://www.w3.org/2000/svg" xmlns:xlink="http://www.w3.org/1999/xlink" version="1.1"><rect x="0" y="0" width="960" height="300" fill="#212529"></rect><path d="M0 158L20 157.3C40 156.7 80 155.3 120 152.5C160 149.7 200 145.3 240 151.3C280 157.3 320 173.7 360 181.5C400 189.3 440 188.7 480 188C520 187.3 560 186.7 600 180.8C640 175 680 164 720 160.8C760 157.7 800 162.3 840 161.5C880 160.7 920 154.3 940 151.2L960 148L960 301L940 301C920 301 880 301 840 301C800 301 760 301 720 301C680 301 640 301 600 301C560 301 520 301 480 301C440 301 400 301 360 301C320 301 280 301 240 301C200 301 160 301 120 301C80 301 40 301 20 301L0 301Z" fill="#212529"></path><path d="M0 182L20 183.2C40 184.3 80 186.7 120 183.7C160 180.7 200 172.3 240 167.7C280 163 320 162 360 166.7C400 171.3 440 181.7 480 187.7C520 193.7 560 195.3 600 195C640 194.7 680 192.3 720 185.5C760 178.7 800 167.3 840 161.7C880 156 920 156 940 156L960 156L960 301L940 301C920 301 880 301 840 301C800 301 760 301 720 301C680 301 640 301 600 301C560 301 520 301 480 301C440 301 400 301 360 301C320 301 280 301 240 301C200 301 160 301 120 301C80 301 40 301 20 301L0 301Z" fill="#323c41"></path><path d="M0 196L20 194.5C40 193 80 190 120 188.3C160 186.7 200 186.3 240 188.8C280 191.3 320 196.7 360 204.7C400 212.7 440 223.3 480 227.7C520 232 560 230 600 225C640 220 680 212 720 207.8C760 203.7 800 203.3 840 209C880 214.7 920 226.3 940 232.2L960 238L960 301L940 301C920 301 880 301 840 301C800 301 760 301 720 301C680 301 640 301 600 301C560 301 520 301 480 301C440 301 400 301 360 301C320 301 280 301 240 301C200 301 160 301 120 301C80 301 40 301 20 301L0 301Z" fill="#445557"></path><path d="M0 217L20 217.3C40 217.7 80 218.3 120 222.5C160 226.7 200 234.3 240 237.7C280 241 320 240 360 241.5C400 243 440 247 480 249.7C520 252.3 560 253.7 600 249.8C640 246 680 237 720 230.8C760 224.7 800 221.3 840 224C880 226.7 920 235.3 940 239.7L960 244L960 301L940 301C920 301 880 301 840 301C800 301 760 301 720 301C680 301 640 301 600 301C560 301 520 301 480 301C440 301 400 301 360 301C320 301 280 301 240 301C200 301 160 301 120 301C80 301 40 301 20 301L0 301Z" fill="#5a6f6c"></path><path d="M0 247L20 249.5C40 252 80 257 120 257.2C160 257.3 200 252.7 240 253.8C280 255 320 262 360 263.2C400 264.3 440 259.7 480 260.7C520 261.7 560 268.3 600 272.3C640 276.3 680 277.7 720 273.8C760 270 800 261 840 257.2C880 253.3 920 254.7 940 255.3L960 256L960 301L940 301C920 301 880 301 840 301C800 301 760 301 720 301C680 301 640 301 600 301C560 301 520 301 480 301C440 301 400 301 360 301C320 301 280 301 240 301C200 301 160 301 120 301C80 301 40 301 20 301L0 301Z" fill="#758a7f"></path></svg>